<svg width="155" height="166" viewBox="0 0 155 166" fill="none" xmlns="http://www.w3.org/2000/svg">
<path d="M17.1909 139.272V142.662H11.6109V160.212H7.41091V142.662H1.83091V139.272H17.1909ZM35.7054 151.542C35.7054 152.142 35.6654 152.682 35.5854 153.162H23.4354C23.5354 154.362 23.9554 155.302 24.6954 155.982C25.4354 156.662 26.3454 157.002 27.4254 157.002C28.9854 157.002 30.0954 156.332 30.7554 154.992H35.2854C34.8054 156.592 33.8854 157.912 32.5254 158.952C31.1654 159.972 29.4954 160.482 27.5154 160.482C25.9154 160.482 24.4754 160.132 23.1954 159.432C21.9354 158.712 20.9454 157.702 20.2254 156.402C19.5254 155.102 19.1754 153.602 19.1754 151.902C19.1754 150.182 19.5254 148.672 20.2254 147.372C20.9254 146.072 21.9054 145.072 23.1654 144.372C24.4254 143.672 25.8754 143.322 27.5154 143.322C29.0954 143.322 30.5054 143.662 31.7454 144.342C33.0054 145.022 33.9754 145.992 34.6554 147.252C35.3554 148.492 35.7054 149.922 35.7054 151.542ZM31.3554 150.342C31.3354 149.262 30.9454 148.402 30.1854 147.762C29.4254 147.102 28.4954 146.772 27.3954 146.772C26.3554 146.772 25.4754 147.092 24.7554 147.732C24.0554 148.352 23.6254 149.222 23.4654 150.342H31.3554ZM42.971 138.012V160.212H38.771V138.012H42.971ZM62.5706 151.542C62.5706 152.142 62.5306 152.682 62.4506 153.162H50.3006C50.4006 154.362 50.8206 155.302 51.5606 155.982C52.3006 156.662 53.2106 157.002 54.2906 157.002C55.8506 157.002 56.9606 156.332 57.6206 154.992H62.1506C61.6706 156.592 60.7506 157.912 59.3906 158.952C58.0306 159.972 56.3606 160.482 54.3806 160.482C52.7806 160.482 51.3406 160.132 50.0606 159.432C48.8006 158.712 47.8106 157.702 47.0906 156.402C46.3906 155.102 46.0406 153.602 46.0406 151.902C46.0406 150.182 46.3906 148.672 47.0906 147.372C47.7906 146.072 48.7706 145.072 50.0306 144.372C51.2906 143.672 52.7406 143.322 54.3806 143.322C55.9606 143.322 57.3706 143.662 58.6106 144.342C59.8706 145.022 60.8406 145.992 61.5206 147.252C62.2206 148.492 62.5706 149.922 62.5706 151.542ZM58.2206 150.342C58.2006 149.262 57.8106 148.402 57.0506 147.762C56.2906 147.102 55.3606 146.772 54.2606 146.772C53.2206 146.772 52.3406 147.092 51.6206 147.732C50.9206 148.352 50.4906 149.222 50.3306 150.342H58.2206ZM88.4662 139.272V160.212H84.2662V146.592L78.6562 160.212H75.4762L69.8362 146.592V160.212H65.6362V139.272H70.4062L77.0662 154.842L83.7262 139.272H88.4662ZM108.069 151.542C108.069 152.142 108.029 152.682 107.949 153.162H95.7986C95.8986 154.362 96.3186 155.302 97.0586 155.982C97.7986 156.662 98.7086 157.002 99.7886 157.002C101.349 157.002 102.459 156.332 103.119 154.992H107.649C107.169 156.592 106.249 157.912 104.889 158.952C103.529 159.972 101.859 160.482 99.8786 160.482C98.2786 160.482 96.8386 160.132 95.5586 159.432C94.2986 158.712 93.3086 157.702 92.5886 156.402C91.8886 155.102 91.5386 153.602 91.5386 151.902C91.5386 150.182 91.8886 148.672 92.5886 147.372C93.2886 146.072 94.2686 145.072 95.5286 144.372C96.7886 143.672 98.2386 143.322 99.8786 143.322C101.459 143.322 102.869 143.662 104.109 144.342C105.369 145.022 106.339 145.992 107.019 147.252C107.719 148.492 108.069 149.922 108.069 151.542ZM103.719 150.342C103.699 149.262 103.309 148.402 102.549 147.762C101.789 147.102 100.859 146.772 99.7586 146.772C98.7186 146.772 97.8386 147.092 97.1186 147.732C96.4186 148.352 95.9886 149.222 95.8286 150.342H103.719ZM110.054 151.842C110.054 150.162 110.384 148.672 111.044 147.372C111.724 146.072 112.644 145.072 113.804 144.372C114.964 143.672 116.254 143.322 117.674 143.322C118.754 143.322 119.784 143.562 120.764 144.042C121.744 144.502 122.524 145.122 123.104 145.902V138.012H127.364V160.212H123.104V157.752C122.584 158.572 121.854 159.232 120.914 159.732C119.974 160.232 118.884 160.482 117.644 160.482C116.244 160.482 114.964 160.122 113.804 159.402C112.644 158.682 111.724 157.672 111.044 156.372C110.384 155.052 110.054 153.542 110.054 151.842ZM123.134 151.902C123.134 150.882 122.934 150.012 122.534 149.292C122.134 148.552 121.594 147.992 120.914 147.612C120.234 147.212 119.504 147.012 118.724 147.012C117.944 147.012 117.224 147.202 116.564 147.582C115.904 147.962 115.364 148.522 114.944 149.262C114.544 149.982 114.344 150.842 114.344 151.842C114.344 152.842 114.544 153.722 114.944 154.482C115.364 155.222 115.904 155.792 116.564 156.192C117.244 156.592 117.964 156.792 118.724 156.792C119.504 156.792 120.234 156.602 120.914 156.222C121.594 155.822 122.134 155.262 122.534 154.542C122.934 153.802 123.134 152.922 123.134 151.902ZM133.596 141.612C132.856 141.612 132.236 141.382 131.736 140.922C131.256 140.442 131.016 139.852 131.016 139.152C131.016 138.452 131.256 137.872 131.736 137.412C132.236 136.932 132.856 136.692 133.596 136.692C134.336 136.692 134.946 136.932 135.426 137.412C135.926 137.872 136.176 138.452 136.176 139.152C136.176 139.852 135.926 140.442 135.426 140.922C134.946 141.382 134.336 141.612 133.596 141.612ZM135.666 143.592V160.212H131.466V143.592H135.666ZM148.996 160.212L145.576 155.052L142.546 160.212H138.046L143.476 151.872L137.986 143.592H142.726L146.116 148.722L149.176 143.592H153.676L148.216 151.872L153.736 160.212H148.996Z" fill="white"/>
<path d="M100.215 33.3928C107.454 33.4167 114.688 33.4239 121.917 33.4143C127.816 33.4072 130.783 35.0986 130.797 41.1834C130.816 50.5866 130.811 59.9826 130.783 69.3714C130.768 74.7611 129.543 78.2084 123.694 78.2873C117 78.378 110.311 78.3183 103.627 78.1081C103.44 78.1033 103.345 78.0078 103.34 77.8214L103.168 71.7796C103.163 71.5216 103.287 71.3926 103.541 71.3926H123.107C123.297 71.3926 123.479 71.3163 123.614 71.1805C123.748 71.0448 123.823 70.8607 123.823 70.6687L123.809 40.7534C123.809 40.5145 123.692 40.3951 123.458 40.3951H93.5498C93.3654 40.3951 93.1886 40.3211 93.0583 40.1893C92.9279 40.0576 92.8546 39.879 92.8546 39.6927L92.8045 7.44096C92.8045 7.15906 92.6635 7.02288 92.3816 7.03243C82.0682 7.41229 75.5319 20.1195 78.1837 29.0568C79.1918 32.4683 80.9406 36.0399 83.43 39.7715C94.8184 56.8434 110.364 76.0726 91.6147 95.5885C91.5001 95.708 91.4594 95.6865 91.4929 95.524C94.6106 81.9066 90.5469 73.041 83.7812 61.4877C76.5281 49.103 62.5523 31.9594 67.6839 16.4786C70.988 6.48058 82.0037 0.52475 92.0878 0.0875594C98.7675 -0.199123 100.065 4.04378 100.079 9.75592C100.089 17.5107 100.012 25.2654 99.8497 33.0202C99.8449 33.2686 99.9667 33.3928 100.215 33.3928Z" fill="white"/>
<path d="M62.3802 104.72C65.0989 104.557 67.5047 103.685 69.5974 102.104C81.8316 92.8438 77.3665 80.7243 70.1135 70.0598C66.2098 64.3166 62.5713 58.4133 59.198 52.35C51.8661 39.1554 52.7979 27.2653 63.2618 16.056C63.6249 15.669 63.7324 15.7287 63.5843 16.2352C59.4202 30.2396 65.6054 42.1584 73.2885 53.8336C83.48 69.3216 98.9895 93.4315 76.9078 107.436C71.3032 110.991 54.8978 116.509 54.991 104.11C55.0531 95.639 55.0435 87.1675 54.9623 78.6961C54.9623 78.4476 54.8357 78.3234 54.5825 78.3234C46.8803 78.438 39.2139 78.3998 31.5834 78.2087C26.3729 78.0725 24.058 75.9582 24.0365 70.8338C24.003 61.3876 24.0006 51.9367 24.0293 42.4809C24.0436 37.6432 25.0614 33.773 30.408 33.4576C33.3226 33.2904 40.2149 33.3 51.0849 33.4863C51.2952 33.4911 51.4027 33.5986 51.4075 33.8088L51.6153 40.0298C51.6201 40.2735 51.5006 40.3953 51.257 40.3953H31.9131C31.2919 40.3953 30.9837 40.7035 30.9885 41.3199L31.1534 71.0201C31.1534 71.2686 31.2776 71.3928 31.5261 71.3928H61.4628C61.6054 71.3928 61.7421 71.4495 61.8429 71.5503C61.9437 71.6511 62.0004 71.7878 62.0004 71.9304V104.354C62.0004 104.612 62.127 104.734 62.3802 104.72Z" fill="white"/>
</svg>
